<?xml version="1.0" encoding="UTF-8" standalone="no" ?>
<!DOCTYPE svg PUBLIC "-//W3C//DTD SVG 1.1//EN" "http://www.w3.org/Graphics/SVG/1.1/DTD/svg11.dtd">
<svg xmlns="http://www.w3.org/2000/svg" xmlns:xlink="http://www.w3.org/1999/xlink" version="1.1" width="1080" height="1080" viewBox="0 0 1080 1080" xml:space="preserve">
<desc>Created with Fabric.js 5.2.4</desc>
<defs>
</defs>
<rect x="0" y="0" width="100%" height="100%" fill="transparent"></rect>
<g transform="matrix(1 0 0 1 540 540)" id="9d7b7324-553b-4210-8bc3-5bb21dd8a5c8"  >
<rect style="stroke: none; stroke-width: 1; stroke-dasharray: none; stroke-linecap: butt; stroke-dashoffset: 0; stroke-linejoin: miter; stroke-miterlimit: 4; fill: rgb(255,255,255); fill-rule: nonzero; opacity: 1; visibility: hidden;" vector-effect="non-scaling-stroke"  x="-540" y="-540" rx="0" ry="0" width="1080" height="1080" />
</g>
<g transform="matrix(1 0 0 1 540 540)" id="9a1617a8-72f7-477a-ad80-542ad68424e3"  >
</g>
<g transform="matrix(3.6 0 0 3.6 540 540)"  >
<g style=""   >
		<g transform="matrix(1 0 0 1 -149.5 -71.5)" id="SvgjsG1022"  >
<rect style="stroke: none; stroke-width: 1; stroke-dasharray: none; stroke-linecap: butt; stroke-dashoffset: 0; stroke-linejoin: miter; stroke-miterlimit: 4; fill: rgb(255,255,255); fill-rule: nonzero; opacity: 0;" vector-effect="non-scaling-stroke"  x="-0.5" y="-0.5" rx="0" ry="0" width="1" height="1" />
</g>
		<g transform="matrix(1 0 0 1 0 69.5)" id="SvgjsG1022"  >
<rect style="stroke: none; stroke-width: 1; stroke-dasharray: none; stroke-linecap: butt; stroke-dashoffset: 0; stroke-linejoin: miter; stroke-miterlimit: 4; fill: rgb(255,255,255); fill-rule: nonzero; opacity: 1;" vector-effect="non-scaling-stroke"  x="-150" y="-2.5" rx="0" ry="0" width="300" height="5" />
</g>
		<g transform="matrix(3.89 0 0 3.89 0 -0.49)" id="SvgjsG1023"  >
<path style="stroke: none; stroke-width: 1; stroke-dasharray: none; stroke-linecap: butt; stroke-dashoffset: 0; stroke-linejoin: miter; stroke-miterlimit: 4; fill: rgb(255,255,255); fill-rule: nonzero; opacity: 1;" vector-effect="non-scaling-stroke"  transform=" translate(-39.89, -26.02)" d="M 5.6952 35.8021 L 10 35.8021 L 10 16.2571 L 4.5989 16.2571 L 5.695200000000001 17.085980000000003 L 5.695200000000001 35.802980000000005 z M 13.69 14.678999999999998 L 13.69 37.379999999999995 C 13.69 38.8773 12.513499999999999 40.0271 11.0162 40.0271 L 2.0054999999999996 40.0271 L 2.0054999999999996 35.802499999999995 L 2.0054999999999996 12.861499999999996 L 1.3370499999999996 12.032619999999996 L 11.01615 12.032619999999996 C 12.486749999999999 12.032619999999996 13.68995 13.262519999999997 13.68995 14.679719999999996 z M 18.930443315508022 35.8021 L 23.262043315508024 35.8021 L 23.262043315508024 16.2571 L 17.860943315508024 16.2571 L 18.930443315508025 17.085980000000003 L 18.930443315508025 35.802980000000005 z M 26.92474331550802 14.678999999999998 L 26.92474331550802 37.379999999999995 C 26.92474331550802 38.8773 25.77504331550802 40.0271 24.277643315508023 40.0271 L 17.914043315508025 40.0271 C 16.416743315508025 40.0271 15.266943315508025 38.877399999999994 15.266943315508025 37.379999999999995 L 15.266943315508025 14.678999999999995 C 15.266943315508025 13.261899999999995 16.416643315508026 12.031899999999995 17.914043315508025 12.031899999999995 L 24.277643315508023 12.031899999999995 C 25.774943315508022 12.031899999999995 26.924743315508024 13.261799999999996 26.924743315508024 14.678999999999995 z M 31.123017112299465 12.004999999999999 L 38.28881711229946 12.004999999999999 L 38.28881711229946 16.229599999999998 L 31.04281711229946 16.229599999999998 L 32.13911711229946 17.03174 C 32.03216711229946 21.73764 32.03216711229946 31.09574 32.13911711229946 35.774739999999994 L 38.28881711229946 35.774739999999994 L 38.28881711229946 39.99934 L 31.12301711229946 39.99934 C 29.625717112299462 39.99934 28.475917112299463 38.849639999999994 28.475917112299463 37.352239999999995 L 28.475917112299463 14.651239999999994 C 28.475917112299463 13.153939999999995 29.625617112299462 12.004139999999994 31.123017112299465 12.004139999999994 z M 43.39571443850267 23.048 L 48.63631443850267 12.004999999999999 L 52.753914438502676 12.004999999999999 L 46.069414438502676 26.016 L 52.753914438502676 40.027 L 48.63631443850267 40.027 L 43.39571443850267 28.984 L 43.39571443850267 40 L 39.705914438502674 40 L 39.705914438502674 13.075 L 38.850304438502675 12.0055 L 43.39580443850267 12.0055 L 43.39580443850267 23.048499999999997 z M 64.57180213903743 14.678999999999998 L 64.57180213903743 20.4544 L 60.90870213903743 20.4544 L 60.90870213903743 16.2298 L 55.50760213903743 16.2298 L 56.57710213903743 17.058680000000003 L 56.57710213903743 20.454380000000004 L 64.57180213903743 30.267180000000003 L 64.57180213903743 34.491780000000006 L 64.57180213903743 37.37948000000001 C 64.57180213903743 38.796580000000006 63.42210213903743 40.02658000000001 61.92470213903743 40.02658000000001 L 55.56110213903743 40.02658000000001 C 54.06380213903743 40.02658000000001 52.91400213903743 38.79668000000001 52.91400213903743 37.37948000000001 L 52.91400213903743 31.416880000000006 L 56.57710213903743 31.416880000000006 L 56.57710213903743 35.801880000000004 L 60.90870213903743 35.801880000000004 L 60.90870213903743 31.577280000000005 L 52.91400213903743 21.764480000000006 L 52.91400213903743 14.678880000000007 C 52.91400213903743 13.181580000000007 54.06370213903743 12.031780000000007 55.56110213903743 12.031780000000007 L 61.92470213903743 12.031780000000007 C 63.42200213903743 12.031780000000007 64.57180213903743 13.181480000000006 64.57180213903743 14.678880000000007 z M 64.46523754010694 12.004999999999999 L 68.74333754010694 12.004999999999999 L 71.71123754010694 23.877 L 74.65243754010693 12.004999999999999 L 78.44923754010694 12.004999999999999 L 73.58293754010694 31.47 L 73.52946154010694 31.710639999999998 L 73.52946154010694 40.02614 L 69.86636154010694 40.02614 L 69.86636154010694 31.68394 L 69.81288554010693 31.47004 L 65.16048554010693 12.834040000000002 z" stroke-linecap="round" />
</g>
</g>
</g>
</svg>